<svg width="295" height="523" viewBox="0 0 295 523" fill="none" xmlns="http://www.w3.org/2000/svg">
<path d="M215.708 244.552C217.556 212.182 201.118 179.301 186.677 153.281C182.978 150.271 180.85 147.324 176.301 146.025C171.337 144.607 166.723 142.853 161.659 141.646C159.422 141.113 157.541 140.238 155.677 138.852C154.604 138.055 157.708 136.552 161.659 133.552C168.659 122.552 166.055 126.106 167.659 121.711C172.094 109.552 171.192 98.0803 161.031 88.811C154.773 83.102 146.894 85.9148 140.369 89.4921C136.08 91.8435 131.668 92.5239 129.134 97.3736C126.959 101.538 125.047 106.066 123.37 110.496C120.245 118.749 119.685 126.878 120.039 135.711C120.109 137.449 121.079 138.268 119.117 138.505C115.62 138.926 114.52 141.792 111.208 143.052C102.882 146.22 95.4599 155.601 90.679 162.872C83.6963 173.492 78.4378 188.428 77.062 201.404C75.351 217.542 73.5127 233.661 72.412 249.861C71.8017 258.842 73.5805 267.88 72.8603 276.897C71.9977 287.697 70.403 298.318 70.7595 309.215C70.8042 310.581 71.9868 315.934 72.4677 317.783C72.3832 318.957 72.3058 320.566 72.3095 321.336C72.3145 322.346 73.5026 336.033 75.0252 333.096C75.3475 332.474 75.5268 331.573 75.6089 330.529C75.7937 333.576 76.3484 337.076 78.8426 338.267C81.3685 339.473 79.4215 329.968 79.4575 328.564C79.5038 326.754 80.7726 324.719 80.969 322.74C81.4289 318.106 81.1884 313.489 81.3277 308.84C81.6873 296.84 83.2062 284.969 82.9674 272.935C82.7799 263.488 83.1751 254.061 84.1971 244.69C85.1877 235.607 88.2078 226.911 91.2426 218.404C92.633 214.507 93.5996 210.233 95.3674 206.519C96.2851 204.591 95.7834 205.928 95.4827 207.103C94.9248 209.283 95.2311 211.757 95.0087 213.998C93.7843 226.335 91.7406 238.438 91.6781 250.917C91.6228 261.965 91.3796 273.006 91.3323 284.055C91.2743 297.573 92.9578 311.042 93.7534 324.519C94.5788 338.502 96.5051 352.372 97.1608 366.373C97.7531 379.022 97.5265 392.024 100.005 404.46C100.966 409.288 101.856 417.447 106.794 419.64C108.902 420.576 112.309 420.366 114.557 420.557C118.072 420.856 121.297 422.157 124.708 422.837C120.964 423.684 118.523 425.301 125.368 426.256C127.383 426.537 139.554 427.668 135.655 422.378C132.997 418.772 129.733 419.684 126.111 419.64C125.094 419.627 124.209 418.195 124.702 417.193C128.056 410.39 129.437 401.634 130.313 394.132C132.703 373.66 134.788 353.887 140.228 333.986C142.82 324.503 144.19 314.523 145.057 304.697C145.232 302.712 145.275 298.29 146.505 296.621C149.303 292.825 152.987 299.324 153.691 301.361C155.813 307.501 157.964 313.629 160.083 319.779C163.257 328.994 165.088 338.131 167.308 347.636C170.27 360.317 173.694 372.873 177.441 385.306C179.906 393.484 183.477 401.114 185.87 409.284C186.639 411.909 187.398 416.578 188.649 418.945C190.468 422.385 196.23 419.184 198.347 418.25C209.088 413.505 220.794 411.375 229.974 403.237C235.119 398.677 218.949 408.01 221.763 405.211C223.248 403.734 232.412 399.695 231.665 397.149C231.229 395.662 222.291 400.917 221.853 401.18C220.542 401.967 214.485 406.367 214.987 405.823C219.039 401.426 224.363 398.915 229.411 396.176C232.789 394.343 222.256 398.852 218.573 399.762C215.274 400.578 211.79 401.339 208.543 402.361C207.576 402.666 207.907 396.358 207.442 394.591C206.954 392.739 207.442 390.666 206.968 388.67C205.777 383.654 205.4 378.082 204.777 372.948C203.647 363.624 202.341 355.173 200.281 345.982C197.672 334.342 195.995 322.352 194.978 310.424C194.461 304.366 193.603 298.573 192.672 292.59C191.226 283.304 187.93 274.562 186.472 265.318C184.058 250.017 184.842 234.497 181.937 219.238C180.339 210.846 177.364 202.469 176.48 193.953C176.133 190.608 178.822 196.774 179.477 198.012C183.056 204.773 186.166 212.509 189.226 219.544C189.925 221.151 194.06 227.911 192.708 230.552C202.708 255.052 191.208 262.052 204.708 289.052C208.941 292.614 196.208 254.552 209.708 287.552C212.265 284.777 200.708 257.552 214.208 284.552C215.783 280.608 215.461 248.885 215.708 244.552Z" fill="#DEBE98" stroke="#1DA099" stroke-linecap="round" stroke-linejoin="round"/>
<path d="M187.94 395.252C195.409 389.329 202.8 383.44 208.59 375.972C209.624 364.345 203.632 357.101 200.761 345.887C197.856 334.539 198.622 315.167 195.226 303.95C193.36 297.787 194.879 292.079 192.742 286C187.726 281.236 193.286 275.216 192.742 271.342C192.273 268.005 189.073 250.805 186.591 252.243C184.73 253.321 182.436 252.878 180.385 253.432C173.813 255.207 167.296 256.557 160.577 257.797C152.653 259.259 144.701 260.966 136.658 261.71C128.193 262.492 119.468 260.537 110.961 260.453C105.396 260.398 99.635 257.084 94.0969 257.716C92.6422 257.883 90.8294 256.39 89.7084 257.453C89.7084 285.318 92.5284 317.071 92.9939 325.343C95.4165 332.484 95.6538 341.832 94.3907 349.19C93.647 353.522 93.6355 357.99 92.4225 362.262C91.7636 364.582 91.651 365.082 94.1129 364.888C94.2608 364.876 93.5975 367.842 93.5653 368.252C93.4279 370 93.1525 371.737 93.0574 373.489L93.0536 373.56C92.9775 374.95 92.8096 378.02 94.8986 378.185C96.477 378.31 98.6235 375.579 98.1682 378.305C97.6754 381.257 96.6847 384.123 96.8905 387.147C97.141 390.829 102.703 391.627 105.358 392.393C112.984 394.592 120.092 397.662 127.563 400.159L127.62 400.178C129.149 400.689 131.857 401.594 131.88 399.451C131.899 397.713 130.418 395.787 130.809 394.153C130.814 394.132 133.028 393.533 133.563 393.01C135.624 390.994 134.236 389.702 132.206 388.698C129.018 387.121 131.293 384.883 132.206 382.286C134.454 375.889 135.243 367.801 137.197 361.313C138.78 356.06 141.06 358.216 142.753 352.989C144.699 346.981 144.67 346.967 145.451 340.707C146.686 330.8 145.057 320.264 147.657 310.531C148.186 308.553 148.128 307.662 149.482 309.477C150.938 311.427 152.364 313.187 153.085 315.55C155.232 322.581 158.535 329.215 160.664 336.32C161.956 340.631 162.21 338.422 164.075 342.541C165.587 345.88 165.527 344.405 166.596 347.835C168.049 352.499 170.334 356.337 169.775 361.17C169.647 362.276 168.211 364.484 169.775 365.437C170.758 366.036 172.502 361.031 171.878 365.437C171.403 368.789 171.662 372.894 172.449 376.168C173.499 380.535 171.8 387.933 173.408 392.183C173.865 393.39 174.796 395.285 176.495 394.726C177.314 394.457 178.087 393.732 178.939 393.612C180.917 393.334 180.919 396.624 180.836 397.811C180.751 399.023 180.867 400.073 180.867 401.25C180.867 401.434 180.819 401.689 180.899 401.86C180.921 401.907 180.934 402.024 180.979 401.995C182.724 400.868 186.32 396.537 187.94 395.252Z" fill="#A5B1EF" stroke="#1DA099" stroke-linecap="round" stroke-linejoin="round"/>
<path d="M157.457 117.016C156.509 112.499 155.062 108.065 153.876 103.606C153.499 103.292 153.074 103.526 152.64 103.59C152.081 103.672 151.771 104.007 151.425 104.449C151.113 104.847 150.741 105.207 150.558 105.692C150.362 106.209 150.488 106.853 150.362 107.398C149.981 109.039 149.269 110.613 148.93 112.27C148.572 114.024 147.882 115.752 147.963 117.584C148.01 118.652 147.877 119.742 148.199 120.777C148.354 121.275 149.069 120.397 149.189 120.264C149.396 120.033 149.515 119.593 149.665 119.316C149.706 119.241 149.745 119.157 149.777 119.069C149.975 119.689 150.444 120.3 150.922 120.573C152.564 121.512 152.574 119.114 152.289 117.699C152.767 118.448 153.435 119.275 154.193 119.742C155.87 120.776 154.933 116.838 154.617 116.206C154.42 115.812 155.134 116.922 155.338 117.312C155.619 117.851 155.94 118.567 156.482 118.895C157.121 119.28 157.136 118.593 157.305 118.095C157.38 117.874 157.424 117.718 157.442 117.487C157.454 117.341 157.487 117.16 157.457 117.016Z" fill="#9BAAF8" fill-opacity="0.5" stroke="#1DA099" stroke-linecap="round" stroke-linejoin="round"/>
<path d="M166.598 105.05C165.619 103.947 165.74 103.704 164.208 103.552C162.95 103.427 162.291 103.465 161.708 103.552C161.179 103.631 161.044 104.227 160.727 104.673C159.157 106.885 160.278 110.139 161.107 112.631C161.708 114.437 162.977 115.153 164.859 115.007C166.656 114.868 168.334 114.063 168.724 112.176C169.042 110.636 168.829 108.943 168.29 107.48C167.94 106.531 167.26 105.796 166.598 105.05Z" fill="#9BF8D1" fill-opacity="0.56" stroke="#1DA099" stroke-linecap="round" stroke-linejoin="round"/>
<path d="M145.054 111.127C143.952 109.327 142.473 108.115 140.499 107.38C139.708 107.552 139.778 107.611 139.055 108.111C138.015 108.831 136.868 109.421 136.212 110.559C135.301 112.139 134.876 113.916 134.882 115.74C134.887 117.339 135.461 118.342 136.738 119.276C139.461 121.267 143.772 119.299 145.105 116.544C145.876 114.95 145.999 112.67 145.054 111.127Z" fill="#9BF8D1" fill-opacity="0.56"/>
<path d="M140.478 107.373C142.463 108.107 143.948 109.321 145.054 111.127C145.999 112.67 145.876 114.95 145.105 116.544C143.772 119.299 139.461 121.267 136.738 119.276C135.461 118.342 134.887 117.339 134.882 115.74C134.876 113.916 135.301 112.139 136.212 110.559C136.868 109.421 138.015 108.831 139.055 108.111C139.778 107.611 139.708 107.552 140.499 107.38" stroke="#1DA099" stroke-linecap="round" stroke-linejoin="round"/>
<path d="M159.708 124.552C157.988 125.244 158.402 125.148 155.902 125.67C152.628 126.353 149.264 126.866 145.926 127.39C143.715 127.736 145.191 127.402 145.191 127.509" stroke="#1DA099" stroke-width="3" stroke-linecap="round" stroke-linejoin="round"/>
<path d="M158.708 135.552C156.529 136.706 157.053 136.546 153.886 137.415C149.739 138.554 145.479 139.409 141.25 140.282C138.45 140.859 140.319 140.303 140.319 140.481" stroke="#1DA099" stroke-linecap="round" stroke-linejoin="round"/>
<path d="M124.198 111.053C124.201 111.053 124.205 111.052 124.208 111.052C124.175 111.035 124.175 111.037 124.198 111.053C122.339 111.295 121.476 110.683 119.672 110.427C117.914 110.176 116.096 110.174 114.335 110.429C111.828 110.793 109.782 113.047 109.166 115.422C108.504 117.976 108.395 120.177 110.258 122.224C112.184 124.34 115.534 123.562 118.047 123.25C119.788 123.034 122.247 122.197 123.172 120.536C124.042 118.973 125.018 117.39 125.264 115.588C125.446 114.253 125.422 113.031 125.046 111.733C124.995 111.555 124.311 111.133 124.198 111.053Z" fill="#DEBE98"/>
<path d="M124.208 111.052C122.343 111.298 121.479 110.684 119.672 110.427C117.914 110.176 116.096 110.174 114.335 110.429C111.828 110.793 109.782 113.047 109.166 115.422C108.504 117.976 108.395 120.177 110.258 122.224C112.184 124.34 115.534 123.562 118.047 123.25C119.788 123.034 122.247 122.197 123.172 120.536C124.042 118.973 125.018 117.39 125.264 115.588C125.446 114.253 125.422 113.031 125.046 111.733C124.984 111.519 124.009 110.952 124.208 111.052Z" stroke="#1DA099" stroke-linecap="round" stroke-linejoin="round"/>
<path d="M155.551 81.545C151.821 81.2388 149.252 79.6409 146.597 77C146.597 78.548 144.93 82.0128 143.588 82.8827C141.582 84.1829 140.102 85.2787 138.526 87.1997C136.78 89.3272 135.402 90.8967 132.978 92.2919C130.638 93.6384 127.925 94.6145 125.461 95.7272C123.183 96.7559 120.575 96.4355 118.309 97.3841C116.848 97.9959 114.988 99.1575 113.779 100.189C112.928 100.915 113.298 100.975 112.882 100.333C112.301 99.4345 112.292 99.349 111.567 99.9834C109.621 101.686 107.021 104.792 105.829 106.991C105.565 107.479 101.425 116.135 104.545 115.754C105.639 115.621 106.4 114.789 106.885 113.801C107.628 114.161 108.668 113.892 109.576 112.486C110.32 111.334 110.383 107.634 111.225 108.716C111.662 109.278 111.497 111.404 111.575 112.068C112.049 116.11 119.124 114.577 116.918 110.578C116.751 110.276 116.174 107.274 117.017 107.949C118.294 108.97 118.809 110.958 120.103 112.091C121.376 113.205 123.223 114.959 124.769 115.678C126.243 116.364 125.598 114.53 125.164 113.953C124.867 113.558 123.177 111.282 123.568 111.597C124.673 112.484 126.085 113.421 127.49 113.702C131.93 114.59 127.163 109.487 126.046 108.678C124.129 107.289 127.91 109.924 129.337 109.887C131.909 109.819 129.293 105.829 128.661 105.38C126.84 104.085 125.62 102.116 124.388 100.257C127.419 102.519 131.016 104.267 134.254 105.942C134.567 106.103 138.658 107.975 138.602 106.657C138.547 105.36 136.285 104.249 135.463 103.518C131.951 100.396 137.839 102.719 139.453 102.993C141.941 103.416 140.089 101.06 138.352 99.3494C140.358 100.056 145.268 101.498 144.31 99.3602C143.428 97.3929 140.026 97.2975 138.45 95.9932C136.901 94.7114 136.49 92.8473 134.619 91.9119C132.655 90.93 138.654 93.654 140.722 94.3896C146.435 96.4208 153.246 102.211 159.822 99.5806C160.73 99.2175 160 98.7251 159.11 98.3522C159.39 98.4302 159.709 98.5177 160.073 98.6154C162.042 99.1444 164.062 99.3289 166.069 99.649C166.501 99.7178 168.475 100.22 167.529 99.1626C166.7 98.2366 165.768 97.3177 164.707 96.6279C167.6 96.0588 167.268 95.4791 165.142 93.5003C163.421 91.8982 161.751 90.8181 160.764 88.5981C160.329 87.6184 159.897 86.1627 161.099 87.7469C164.106 91.7101 167.33 94.926 168.904 99.8466C170.34 104.332 168.602 107.968 168.106 112.433C167.874 114.521 167.507 116.584 167.255 118.665C167.185 119.243 166.171 122.734 167.118 122.313C168.493 121.702 169.556 118.542 170.402 117.115C171.75 114.839 171.163 112.348 174.232 112.433C178.646 112.555 174.324 106.628 173.472 104.924C172.956 103.892 172.226 103.044 171.382 102.288C171.527 102.388 171.734 102.481 171.907 102.385C173.072 101.741 172.823 99.0394 172.247 97.9755C172.565 98.0728 172.893 98.1424 172.986 98.1213C173.885 97.9169 173.461 96.4115 173.244 95.8792C172.196 93.3055 170.04 91.9163 167.498 91.1138C167.308 91.0538 169.004 90.8491 169.277 90.2702C169.451 89.8993 166.093 85.9812 165.743 85.6188C162.941 82.7209 159.445 81.8647 155.551 81.545Z" fill="#8086A5" stroke="#1DA099" stroke-linecap="round" stroke-linejoin="round"/>
<path d="M137.71 89.0367C143.127 85.7784 149.226 84.1951 154.708 81.0518C155.15 81.0518 153.18 78.2788 152.824 78.067C152.241 77.72 150.859 77.5667 150.205 77.5855C147.932 77.6508 145.726 77.7597 143.447 78.0096C141.417 78.2323 139.337 78.2469 137.326 78.6229C135.526 78.9596 133.715 79.6029 131.985 80.1961C129.074 81.1941 126.193 82.0867 123.422 83.4458C121.078 84.5956 118.948 86.461 116.923 88.0968C115.064 89.5983 113.514 91.2288 112.08 93.1461C110.24 95.6048 108.094 97.8292 106.4 100.408C104.729 102.952 103.229 105.696 101.967 108.463C101.133 110.292 100.709 112.172 100.697 114.186C100.696 114.379 100.765 116.51 100.623 116.518C100.559 116.522 100.806 119.396 102.348 118.602C102.809 118.364 103.401 117.63 103.687 116.996C103.585 117.479 103.477 118.109 103.483 118.433C103.511 119.984 103.613 121.842 104.44 123.207C105.049 124.212 105.963 125.348 106.761 126.216C107.285 126.785 107.556 127.488 107.979 128.127C108.495 128.906 109.105 129.644 109.65 130.405C110.406 131.463 111.56 131.613 112.73 131.944C113.734 132.229 114.697 132.782 115.582 133.323C116.427 133.84 118.115 134.338 118.863 133.348C118.973 133.203 119.915 132.425 119.829 132.194C119.497 131.31 119.374 130.105 119.49 129.173C119.679 127.665 119.663 126.061 119.548 124.539C119.479 123.628 119.303 122.721 119.152 121.82C118.871 120.145 119.178 118.406 119.542 116.776C120.091 114.315 120.616 111.816 121.362 109.403C122.144 106.873 123.276 104.78 124.629 102.531C125.582 100.946 126.827 99.643 128.056 98.2727C129.195 97.0024 130.28 95.6409 131.503 94.4528C132.967 93.0314 134.55 91.7675 136.054 90.395C136.58 89.915 137.096 89.4061 137.71 89.0367Z" fill="#D9EE55" stroke="#1DA099" stroke-linecap="round" stroke-linejoin="round"/>
<path d="M140.208 112.052C140.602 113.732 140.801 113.679 141.311 115.327C141.321 115.361 141.366 115.605 141.415 115.689C141.44 115.734 141.46 115.785 141.497 115.822" stroke="#1DA099" stroke-width="4" stroke-linecap="round" stroke-linejoin="round"/>
<path d="M164.708 110.552C164.407 109.535 164.052 108.55 163.708 107.552" stroke="#1DA099" stroke-width="4" stroke-linecap="round" stroke-linejoin="round"/>
<path d="M125.619 123.768C124.218 121.911 122.437 119.884 120.518 118.228C118.587 116.855 117.776 121.128 117.61 121.706C117.208 123.099 116.873 124.501 116.402 125.877C115.938 127.233 115.363 128.421 115.363 129.89C115.363 130.072 115.578 132.456 116.343 132.036C117.239 131.545 117.763 130.639 118.016 129.844C118.135 129.468 118.265 129.093 118.345 128.707C118.375 128.563 118.423 128.225 118.552 128.591C118.805 129.31 118.779 130.554 119.988 130.996C120.471 131.173 121.091 131.013 121.502 130.915C122.114 130.769 122.379 130.414 122.587 130C123.161 128.858 122.855 127.297 122.47 126.005C122.206 125.116 122.614 126.276 122.726 126.524C122.972 127.065 123.408 128.075 124.213 128.411C124.828 128.668 125.116 128.013 125.446 127.804C126.01 127.447 125.887 126.757 125.986 126.217C126.112 125.525 126.152 124.476 125.619 123.768Z" fill="#8086A5" stroke="#1DA099" stroke-linecap="round" stroke-linejoin="round"/>
<path d="M128.352 96.8458C127.676 96.3965 127.061 96.0184 126.23 95.9725C125.793 95.9484 125.354 96.0118 124.916 95.9906C124.187 95.9555 123.477 95.7708 122.755 95.6764C122.567 95.6517 121.444 95.8534 121.444 95.5132" stroke="#1DA099" stroke-width="2" stroke-linecap="round" stroke-linejoin="round"/>
<path d="M124.082 103.536C122.737 103.003 121.447 102.545 120.226 101.762C119.733 101.446 119.053 101.061 118.466 100.968C117.659 100.839 116.956 100.817 116.14 100.817" stroke="#1DA099" stroke-width="2" stroke-linecap="round" stroke-linejoin="round"/>
<path d="M121.634 109.547C119.982 108.831 118.226 108.18 116.704 107.211C116.193 106.886 115.669 106.431 115.08 106.283" stroke="#1DA099" stroke-width="2" stroke-linecap="round" stroke-linejoin="round"/>
<path d="M120.03 114.252C118.208 115.51 116.196 114.135 114.542 113.231C113.97 112.918 112.975 112.894 112.578 112.348" stroke="#1DA099" stroke-width="2" stroke-linecap="round" stroke-linejoin="round"/>
<path d="M118.425 120.697C117.64 120.903 116.883 121.155 116.071 120.99C115.537 120.882 114.98 120.787 114.462 120.619C113.684 120.366 113.048 119.856 112.339 119.467C111.708 119.122 110.941 119.194 110.429 118.63" stroke="#1DA099" stroke-width="2" stroke-linecap="round" stroke-linejoin="round"/>
<path d="M116.739 126.626C115.269 126.633 114.02 126.575 112.853 125.632C112.529 125.37 112.15 125.124 111.735 125.049" stroke="#1DA099" stroke-width="2" stroke-linecap="round" stroke-linejoin="round"/>
<path d="M131.246 94.1377C129.379 93.9373 127.513 93.7368 125.647 93.5364" stroke="#1DA099" stroke-width="2" stroke-linecap="round" stroke-linejoin="round"/>
<path d="M133.796 91.9398C132.019 91.5075 130.268 90.9778 128.495 90.5344C127.924 90.3916 127.347 90.2604 126.767 90.4054" stroke="#1DA099" stroke-width="2" stroke-linecap="round" stroke-linejoin="round"/>
<path d="M137.052 88.8086C135.521 87.9812 133.852 87.7782 132.13 87.72C131.53 87.6997 130.676 87.4923 130.105 87.7304" stroke="#1DA099" stroke-width="2" stroke-linecap="round" stroke-linejoin="round"/>
<path d="M140.1 87.2328C140.164 87.2422 141.122 87.4203 140.662 87.2224C139.892 86.8915 139.095 86.8353 138.281 86.6868C137.367 86.5202 136.507 86.1536 135.63 85.8596C134.9 85.6149 134.285 85.5639 133.527 85.6361" stroke="#1DA099" stroke-width="2" stroke-linecap="round" stroke-linejoin="round"/>
<path d="M145.595 84.5369C144.286 84.2572 142.933 84.0642 141.729 83.4494C141.105 83.1308 140.531 82.7083 139.867 82.4702C139.111 82.1989 138.11 81.8979 137.321 82.1523" stroke="#1DA099" stroke-width="2" stroke-linecap="round" stroke-linejoin="round"/>
<path d="M150.157 82.5879C149.313 82.1711 148.39 81.8206 147.614 81.2815C147.142 80.9532 146.799 80.4682 146.294 80.1813C145.547 79.757 144.737 79.83 143.915 79.83" stroke="#1DA099" stroke-width="2" stroke-linecap="round" stroke-linejoin="round"/>
<path d="M152.811 80.8045C151.964 80.3154 151.271 79.6537 150.419 79.1594C149.976 78.9024 149.575 78.5647 149.12 78.3369" stroke="#1DA099" stroke-width="2" stroke-linecap="round" stroke-linejoin="round"/>
<path d="M216.03 218.559C214.801 213.774 215.3 212.128 212.471 207.793C212.638 205.237 211.999 202.795 211.066 200.356C210.074 197.763 212.378 190.344 211.224 187.788C209.767 184.559 207.487 181.514 205.583 178.444C201.632 172.073 195.879 166.594 192.081 160.134C190.131 156.817 187.809 153.688 185.343 150.607C184.26 149.253 176.645 146.105 171.657 144.497C168.162 139.449 159.191 148.784 157.689 148.805C153.053 148.872 151.817 151.943 147.213 152.138C142.705 152.329 138.735 150.354 134.217 150.256C129.435 150.153 124.718 149.932 119.942 149.718C116.782 149.577 113.493 149.36 110.399 148.805C108.376 148.443 107.143 147.276 105.521 146.356C104.859 145.981 104.271 145.724 103.766 146.377C102.724 147.726 101.532 148.811 100.167 149.963C98.3904 151.461 96.7264 152.983 95.2135 154.665C93.8689 156.16 93.2835 157.816 92.1249 159.38C90.7144 161.284 88.8518 162.865 87.2974 164.674C86.3108 165.822 85.099 166.855 84.1785 168.032C83.484 168.92 83.1143 169.931 82.3941 170.807C80.4226 173.206 80.1684 175.473 79.5128 178.26C78.7147 181.654 77.8499 185.178 76.6265 188.485C74.4983 194.238 71.6271 200.312 71.6271 206.367C71.6271 210.256 71.8914 213.888 71.2328 217.773C70.6594 221.156 70.9066 224.686 70.9346 228.095C70.9624 231.476 70.4611 234.854 70.8689 238.23C71.208 241.038 71.6086 243.824 71.8394 246.641C71.8916 247.278 70.9434 251.197 72.7089 251.14C73.2523 251.123 74.4836 250.142 74.099 250.452C73.5709 250.877 73.2395 251.362 72.9364 251.911C72.1601 253.314 71.5519 254.684 71.0408 256.145C70.817 256.784 71.2626 257.147 71.8192 257.473C74.6618 259.138 77.7303 260.457 81.2113 260.904C83.3235 261.176 85.3622 260.976 85.4423 258.879C85.4512 258.646 85.4378 258.457 85.4107 258.306C85.4669 258.331 85.5295 258.355 85.599 258.378C88.6682 259.39 88.459 256.01 88.081 254.73C87.3214 252.159 86.4323 249.446 86.1752 246.804C86.0365 245.378 86.6201 244.031 86.6201 242.615C86.6201 241.104 86.498 239.617 86.5796 238.104C86.7248 235.412 86.947 232.835 87.7423 230.202C88.3633 228.146 89.1253 226.207 89.4913 224.098C89.8921 221.788 90.7021 219.546 90.8561 217.211C90.9497 215.79 92.4792 214.783 93.9427 213.739C93.8441 214.478 93.7316 215.216 93.5909 215.951C92.9744 219.172 92.6593 222.825 91.7963 226C90.9996 228.932 92.4745 231.36 91.9632 234.322C91.6093 236.373 91.2177 238.851 91.7963 240.904C92.0606 241.841 90.638 243.081 92.0541 242.986C92.6678 242.945 91.2723 243.76 90.9774 244.196C89.8236 245.902 89.2667 250.95 91.7963 252.167C92.3487 252.433 93.0348 252.51 93.6414 252.338C94.607 252.066 95.2511 252.295 96.1638 252.583C99.1973 253.538 103.046 253.063 106.223 253.39C108.456 253.62 110.85 253.53 113.103 253.475C115.492 253.417 117.639 252.632 119.942 252.249C123.757 251.614 128.018 252.251 131.761 252.88C136.261 253.637 141.181 253.588 145.682 252.893C150.518 252.145 154.989 251.168 159.962 251.128C164.433 251.092 168.86 250.837 173.282 250.309C177.268 249.833 182.97 249.754 185.99 247.208C186.66 246.643 187.838 246.731 188.73 246.731C190.734 246.731 191.259 246.026 191.394 244.465C191.494 243.302 191.161 242.066 190.883 240.928C190.617 239.839 190.888 238.799 190.676 237.737C190.468 236.699 190.214 235.221 189.498 234.334C188.611 233.236 186.987 232.714 186.263 231.547C187.789 227.381 187.726 226.423 186.055 217.947C186.643 218.249 187.361 218.252 188.157 217.695C189.376 216.843 189.369 216.343 189.31 217.736C189.267 218.722 189.137 219.08 189.704 219.978C190.033 220.498 190.115 219.956 190.412 219.717C190.504 219.642 192.027 220.379 192.272 220.45C193.779 220.886 195.745 221.003 197.251 220.666C199.854 220.085 202.69 220.495 205.364 220.377C207.664 220.275 210.473 220.53 212.643 221.253C213.413 221.509 214.15 222.087 215.029 221.966C215.504 221.901 215.529 221.71 216.116 221.917C216.215 221.952 216.584 222.273 216.637 222.17C216.969 221.512 216.039 218.594 216.03 218.559Z" fill="#1DA099" stroke="#1DA099" stroke-linecap="round" stroke-linejoin="round"/>
<path d="M209.607 391.964C206.664 397.244 202.884 402.058 199.709 407.207C199.861 406.751 199.661 406.753 199.806 406.284C199.877 406.054 200.43 406.014 200.335 405.792C199.719 404.357 197.552 405.192 196.427 405.22C194.857 405.26 193.345 404.965 191.785 404.837C190.189 404.706 188.47 405.438 186.89 405.112C185.905 404.91 184.387 403.216 184.121 404.583C183.766 406.409 183.306 408.074 183.29 409.927C183.283 410.782 182.76 411.247 182.631 412.064C182.426 413.372 182.172 414.516 182.243 415.875C182.378 418.48 182.116 421.109 182.281 423.685C182.339 424.595 182.692 425.822 182.081 426.637C181.96 426.799 184.135 426.633 184.181 426.632C185.405 426.605 186.292 426.233 187.414 425.806C188.943 425.223 190.623 425.219 192.223 424.969C194.994 424.537 197.596 423.375 200.329 422.767C202.667 422.248 204.896 421.92 207.103 420.927C212.772 418.377 218.416 415.779 224.483 414.299C228.683 413.274 232.607 411.486 236.778 410.423C237.424 410.259 239.65 409.025 240.189 409.765C240.198 409.777 240.54 409.348 240.588 409.106C240.926 407.42 240.525 404.923 239.725 403.428C236.383 397.189 226.416 396.321 220.618 399.067C218.865 399.898 215.735 402.129 213.65 401.523C213.11 401.366 212.523 401.216 212.83 400.552C213.323 399.483 215.136 398.939 216.133 398.69C217.332 398.39 218.438 397.554 219.587 397.087C221.479 396.317 223.426 393.877 223.101 391.77C222.716 389.278 221.756 385.473 219.139 384.322C217.171 383.456 214.525 384.452 213.181 385.952C211.661 387.646 210.704 389.997 209.607 391.964Z" fill="#D9EE55" stroke="#1DA099" stroke-width="2" stroke-linecap="round" stroke-linejoin="round"/>
<path d="M135.16 403.6C129.703 405.654 127.772 410.462 123.113 413.704C121.877 413.704 120.739 412.585 119.513 412.441C115.531 411.973 111.978 410.159 108.065 409.332C105.381 408.765 102.784 408.937 100.358 407.384C100.053 407.188 97.8363 405.385 97.5361 404.93C97.5258 404.867 97.5177 404.828 97.5136 404.831C97.4926 404.843 97.502 404.878 97.5361 404.93C97.5759 405.172 97.6486 405.78 97.6486 405.819C97.6486 406.793 97.4888 407.738 97.5406 408.717C97.6685 411.131 97.7477 413.661 98.5337 415.96C99.4667 418.689 99.6134 421.21 99.9479 424.029C99.9645 424.169 100.424 426.084 100.671 425.406C101.074 424.298 108.437 428.611 109.382 428.86C112.138 429.586 115.076 429.973 117.905 430.258C121.546 430.625 124.81 432.105 128.376 432.735C133.844 433.702 145.706 433.244 151.005 434.906C152.996 435.531 152.86 433.613 152.743 432.138C152.491 428.952 154.489 426.403 152.365 423.291C150.569 420.66 142.833 416.593 139.651 415.55C137.736 414.923 135.672 415.039 133.703 414.684C134.059 414.569 134.409 414.448 134.75 414.352C137.775 413.499 141.122 414.383 143.969 413.229C146.008 412.403 147.894 411.255 150.003 410.595C151.32 410.183 152.151 409.625 152.561 408.226C153.119 406.322 152.517 403.997 152.205 402.094C151.99 400.785 151.418 398.941 150.51 397.933C149.541 396.856 147.164 398.988 146.333 399.369C142.666 401.048 138.922 402.185 135.16 403.6Z" fill="#D9EE55" stroke="#1DA099" stroke-width="2" stroke-linecap="round" stroke-linejoin="round"/>
<path d="M231.903 398.713C230.822 397.442 229.107 397.655 227.584 397.967C226.727 398.143 226.447 398.31 226.204 399.046C225.882 400.024 225.553 401 225.247 401.984C224.925 403.019 224.608 404.053 224.313 405.095C224.259 405.285 224.198 405.723 224.016 405.854C223.563 406.177 223.43 403.887 223.426 403.794C223.354 402.027 223.535 400.096 223.004 398.385C222.876 397.973 222.934 398.466 222.918 398.612C222.822 399.446 222.461 400.276 222.203 401.07C221.853 402.147 221.44 403.192 221.042 404.251C220.682 405.207 220.423 406.259 219.916 407.151C219.048 408.679 218.467 406.402 218.431 405.674C218.365 404.335 218.489 402.992 218.4 401.656C218.379 401.345 218.319 399.374 217.784 399.27C217.284 399.173 215.841 405.263 215.733 405.603C215.337 406.838 214.905 408.108 214.3 409.259C214.195 409.46 213.528 410.516 213.235 410.047C212.874 409.469 213.28 408.272 213.409 407.673C213.702 406.316 214.109 404.998 214.339 403.624C214.375 403.41 214.63 400.993 214.429 401.078C214.158 401.192 213.985 401.591 213.796 401.805C213.02 402.683 212.446 403.745 211.733 404.675C210.998 405.633 210.195 406.614 209.272 407.397C208.889 407.723 208.357 408.17 207.815 408.138C207.513 408.12 208.299 407.281 208.37 407.182C208.967 406.348 209.543 405.485 210.111 404.63C211.445 402.62 212.9 400.897 214.527 399.135" stroke="#1DA099" stroke-width="2" stroke-linecap="round" stroke-linejoin="round"/>
<path d="M244.67 418.022C244.963 415.193 243.517 411.813 242.601 409.16C242.831 408.647 242.298 409.56 241.724 409.256C241.664 409.224 240.722 409.359 240.541 409.359C239.648 409.359 238.756 409.542 237.868 409.525C236.281 409.495 234.137 410.714 232.729 411.337C230.421 412.358 227.744 412.658 225.343 413.477C222.39 414.484 219.687 415.886 216.592 416.583C214.814 416.984 213.181 417.765 211.445 418.28C210.116 418.676 208.699 418.675 207.357 419.059C202.701 420.391 197.951 421.308 193.373 422.877C192.062 423.327 190.683 423.442 189.334 423.756C188.185 424.023 187.143 424.562 185.995 424.818C184.805 425.083 183.594 425.195 182.408 425.497C181.101 425.83 181.986 427.758 182.201 428.548C182.558 429.855 183.05 431.127 183.467 432.418C183.66 433.015 183.74 434.07 184.146 434.588C184.916 435.57 186.454 434.526 187.597 434.23C189.345 433.776 191.193 433.685 192.893 433.075C194.907 432.352 196.89 431.622 198.983 431.098C203.822 429.885 208.768 429.29 213.568 427.921C216.536 427.075 219.21 425.586 222.054 424.449C224.973 423.282 227.767 422.508 230.834 421.763C234.014 420.991 237.135 420.157 240.346 419.468C241.576 419.205 242.863 419.188 244.087 418.915C244.489 418.825 244.67 418.743 244.554 418.406C244.501 418.251 244.655 418.163 244.67 418.022Z" fill="#E88772" stroke="#1DA099" stroke-width="2" stroke-linecap="round" stroke-linejoin="round"/>
<path d="M148.487 418.926C146.369 419.724 145.253 419.966 143.576 418.34C142.99 417.771 142.842 417.709 142.169 418.12C141.154 418.74 140.139 419.343 139.054 419.835C137.786 420.41 136.403 420.939 135.26 421.73C134.812 422.04 134.286 421.325 134.417 420.902C134.686 420.033 135.646 419.19 136.221 418.531C136.869 417.787 138.776 416.22 138.746 415.144C138.739 414.888 134.371 416.824 133.893 416.933C132.529 417.244 131.125 417.336 133.193 416.504C136.634 415.12 140.529 414.341 144.214 414.21C149.41 414.024 154.436 413.046 159.577 412.359C162.228 412.005 160.436 413.791 159.254 414.529C156.155 416.464 153.17 417.626 149.553 418.127C145.984 418.622 142.595 418.241 139.523 416.321C138.597 415.742 137.452 414.856 136.994 416.156C136.823 416.642 136.814 417.159 136.73 417.666C136.498 419.056 135.883 420.272 135.279 421.528C134.47 423.211 133.388 424.586 132.083 425.919C131.484 426.531 129.943 428.1 128.916 427.843C127.444 427.475 130.941 420.509 131.269 420.03C132.264 418.577 133.563 417.401 134.997 416.394C135.542 416.011 136.49 415.21 137.206 415.496" stroke="#1DA099" stroke-width="2" stroke-linecap="round" stroke-linejoin="round"/>
<path d="M152.25 438.386C152.667 436.183 153.601 434.14 154.708 432.085C153.899 432.361 152.225 432.271 151.381 432.193C149.459 432.014 147.5 432.834 145.602 433.049C142.679 433.38 139.729 432.448 136.823 432.312C134.181 432.188 131.9 432.114 129.334 431.548C126.794 430.989 124.824 429.571 122.538 428.631C119.798 427.503 116.232 427.802 113.198 427.572C111.948 427.477 98.3323 424.853 98.282 425.007C98.1379 425.448 98.3032 425.984 98.3522 426.426C98.4618 427.417 98.42 428.411 98.3171 429.401C98.0679 431.796 97.3171 434.75 97.9664 437.115C98.3163 438.389 99.2894 438.129 100.78 438.156C102.496 438.186 104.196 438.411 105.908 438.463C108.191 438.533 110.432 438.414 112.692 438.746C115.954 439.227 119.268 439.333 122.538 439.788C125.591 440.212 128.729 440.408 131.812 440.677C137.788 441.196 143.716 441.214 149.479 439.788C150.321 439.579 150.821 439.36 151.552 439.537C151.875 439.615 152.227 438.503 152.25 438.386Z" fill="#E88772" stroke="#1DA099" stroke-width="2" stroke-linecap="round" stroke-linejoin="round"/>
<path d="M153.835 263.628C154.202 265.351 155.278 267.047 153.505 267.908C152.633 268.332 151.358 268.56 150.396 268.494C148.741 268.38 146.272 268.05 146.036 266.158C145.96 265.557 148.343 265.172 149.152 264.798C149.715 264.538 154.884 262.756 152.938 264.079C150.298 265.874 147.329 265.384 144.304 265.384C142.447 265.384 140.636 265.47 138.785 265.597C137.156 265.71 135.974 266.431 134.443 266.847C132.86 267.278 136.753 268.005 137.267 268.073C138.865 268.284 140.198 268.019 141.712 267.53C143.191 267.052 144.357 267.799 145.798 267.933C147.055 268.049 147.299 266.739 148.164 266.799C148.605 266.829 149.378 269.157 149.627 269.579C150.588 271.209 151.522 273.013 151.975 274.86C152.381 276.52 156.77 283.568 154.469 284.958C152.076 286.404 149.152 273.262 148.67 272.14C148.041 270.677 147.683 268.023 146.657 266.835C146.514 266.669 146.686 269.644 146.694 270.213C146.743 273.486 146.859 276.708 146.487 279.964C146.409 280.647 146.695 284.35 145.298 283.58C141.905 281.71 144.828 274.68 145.542 272.146C146.02 270.449 146.662 268.745 146.584 266.957C146.563 266.47 146.227 266.235 146.371 266.811" stroke="#1DA099" stroke-width="2" stroke-linecap="round" stroke-linejoin="round"/>
<path d="M129.741 263.263C129.587 265.108 129.446 266.953 129.306 268.799" stroke="#1DA099" stroke-width="2" stroke-linecap="round" stroke-linejoin="round"/>
<path d="M123.956 261.708C123.719 264.069 123.724 266.523 123.334 268.862" stroke="#1DA099" stroke-width="2" stroke-linecap="round" stroke-linejoin="round"/>
<path d="M117.86 261.023C117.356 263.371 116.767 265.726 116.491 268.115" stroke="#1DA099" stroke-width="2" stroke-linecap="round" stroke-linejoin="round"/>
<path d="M109.338 259.904C108.989 262.586 108.913 265.291 108.778 267.991" stroke="#1DA099" stroke-width="2" stroke-linecap="round" stroke-linejoin="round"/>
<path d="M103.241 260.09C103.09 262.154 103.486 264.407 103.117 266.435" stroke="#1DA099" stroke-width="2" stroke-linecap="round" stroke-linejoin="round"/>
<path d="M96.9586 258.66C97.6504 260.978 97.3884 263.256 97.1452 265.627" stroke="#1DA099" stroke-width="2" stroke-linecap="round" stroke-linejoin="round"/>
<path d="M93.7239 258.286C93.539 260.231 93.5348 262.205 93.2262 264.134" stroke="#1DA099" stroke-width="2" stroke-linecap="round" stroke-linejoin="round"/>
<path d="M159.103 266.062C159.103 263.607 158.8 261.939 157.548 259.904" stroke="#1DA099" stroke-width="2" stroke-linecap="round" stroke-linejoin="round"/>
<path d="M166.008 265.565C164.174 263.277 163.01 260.862 162.089 258.1" stroke="#1DA099" stroke-width="2" stroke-linecap="round" stroke-linejoin="round"/>
<path d="M170.487 264.258C169.917 261.646 169.164 259.086 168.558 256.482" stroke="#1DA099" stroke-width="2" stroke-linecap="round" stroke-linejoin="round"/>
<path d="M175.588 263.574C175.007 261.788 174.611 260.149 174.468 258.286" stroke="#1DA099" stroke-width="2" stroke-linecap="round" stroke-linejoin="round"/>
<path d="M180.253 261.521C179.832 259.581 179.335 257.695 178.76 255.798" stroke="#1DA099" stroke-width="2" stroke-linecap="round" stroke-linejoin="round"/>
<path d="M184.172 261.272C183.859 259.651 183.512 258.037 183.177 256.42" stroke="#1DA099" stroke-width="2" stroke-linecap="round" stroke-linejoin="round"/>
<path d="M187.656 257.478C187.407 256.545 187.158 255.612 186.909 254.678" stroke="#1DA099" stroke-width="2" stroke-linecap="round" stroke-linejoin="round"/>
<path d="M117.213 273.251C108.745 279.736 97.5076 278.353 87.4806 279.871" stroke="#1DA099" stroke-width="2" stroke-linecap="round" stroke-linejoin="round"/>
<path d="M188.797 276.954C183.78 275.951 179.789 274.947 176.343 271.008" stroke="#1DA099" stroke-width="2" stroke-linecap="round" stroke-linejoin="round"/>
<path d="M146.373 184.75C146.203 184.44 143.036 179.798 145.152 179.618C145.741 179.568 146.107 180.164 146.421 180.543C147.065 181.32 147.415 182.266 148.101 183.013C149.408 184.435 150.822 186.097 151.867 187.724C152.005 187.939 152.762 188.71 152.67 188.555C150.816 185.425 149.527 181.819 148.149 178.466C147.51 176.91 146.908 175.339 146.266 173.785C145.862 172.809 145.872 172.485 146.789 173.326C149.605 175.91 152.07 178.863 154.268 181.998C156.92 185.779 159.642 189.526 162.73 192.97C163.74 194.096 165.075 194.846 166.271 195.752C167.099 196.379 168.375 196.739 169.086 197.432C169.865 198.193 168.334 198.611 167.796 198.823C165.475 199.737 163.094 199.398 160.653 199.183C157 198.862 153.848 197.614 150.38 196.516C147.485 195.6 150.545 197.867 151.257 198.399C152.571 199.38 154.033 200.108 155.372 201.048C157.46 202.514 159.096 204.506 161.265 205.872C162.02 206.347 164.304 207.334 163.42 207.458C162.542 207.582 160.506 206.644 159.636 206.37C155.902 205.193 152.785 202.922 149.155 201.63C147.087 200.894 152.646 204.29 154.36 205.661C155.827 206.834 160.241 208.411 159.864 210.909C159.403 213.962 154.127 209.864 153.411 209.454C149.945 207.47 146.373 205.577 143.248 203.07C142.302 202.311 141.532 201.365 140.626 200.562C140.123 200.116 138.976 199.632 138.713 199.001C138.591 198.708 136.629 198.537 136.158 198.298C134.561 197.489 132.918 197.077 131.477 195.953C128.457 193.596 125.617 190.957 122.804 188.361C121.234 186.912 119.482 185.613 117.973 184.109C117.136 183.276 117.422 183.21 118.327 183.469C120.938 184.217 123.493 185.126 125.888 186.411C126.245 186.602 130.03 188.823 128.574 187.855C125.4 185.746 122.424 182.722 119.86 179.924C117.989 177.882 122.628 179.787 123.339 180.088C126.843 181.565 129.622 184.281 133.054 185.844C134.305 186.413 135.638 186.646 136.845 187.326C138.344 188.172 139.846 189.084 141.496 189.607C143.334 190.189 143.37 190.275 144.883 189.415C146.82 188.314 146.443 185.669 145.803 183.959" stroke="#9BF8D1" stroke-opacity="0.56" stroke-width="2" stroke-linecap="round" stroke-linejoin="round"/>
<path d="M160.694 195.456C159.158 193.78 157.703 191.967 155.994 190.46" stroke="#9BF8D1" stroke-opacity="0.56" stroke-width="2" stroke-linecap="round" stroke-linejoin="round"/>
<path d="M155.39 196.163C153.988 194.863 152.577 193.574 151.19 192.258" stroke="#9BF8D1" stroke-opacity="0.56" stroke-width="2" stroke-linecap="round" stroke-linejoin="round"/>
<path d="M99.7084 151C99.638 151.027 99.6254 151.053 99.6497 151.08C99.0341 151.86 97.0201 152.7 95.9901 153.112C93.7116 154.024 91.5634 156.548 89.9668 158.383C88.192 160.423 86.5635 162.977 85.6987 165.531C84.4206 169.304 80.5431 168.803 79.1702 172.541C76.1479 180.768 74.2222 189.227 71.9795 197.686C70.1011 204.772 69.7422 211.295 69.7949 218.564C69.8127 221.019 69.1894 223.351 69.0425 225.783C68.8884 228.335 69.1882 230.815 69.3753 233.35C69.6816 237.502 69.274 241.839 69.274 246.01C69.274 249.846 70.4315 253.617 70.4315 257.469C70.4315 258.455 70.1166 258.811 71.2489 258.575C73.5062 258.105 76.51 259.488 78.6276 260.138C81.0645 260.886 83.5864 262.258 86.1945 261.896C86.9353 261.793 88.8184 261.765 89.2617 260.977C90.5218 258.737 89.457 254.161 89.457 251.681C89.457 246.663 88.3784 241.907 88.683 236.83C88.9927 231.668 90.3108 226.759 90.9472 221.667C91.2348 219.367 92.095 217.798 93.443 215.981C95.9325 212.626 97.5247 208.396 98.3839 204.334C98.9095 201.85 99.6305 199.425 99.9464 196.898C100.219 194.715 100.975 192.57 101.22 190.409C102.085 182.776 100.956 174.685 100.547 167.094C100.483 165.903 99.5724 154.807 100.373 151.62C100.447 151.325 99.748 151.191 99.6497 151.08C99.671 151.054 99.6906 151.027 99.7084 151Z" fill="#9BF8D1" fill-opacity="0.56" stroke="#1DA099" stroke-linecap="round" stroke-linejoin="round"/>
<path d="M182.853 148.896C177.677 146.243 172.54 143.492 166.894 142C166.222 143.12 165.751 142.285 165.708 143.5C165.667 144.678 168.024 147.008 168.708 148.252C170.637 151.755 172.348 155.402 174.214 158.943C175.472 161.33 174.614 164 175.156 166.684C175.544 168.602 178.545 171.778 177.666 173.297C177.324 173.888 177.262 175.476 177.805 176.087C177.96 176.262 177.912 176.664 177.965 176.884C178.19 177.819 178.572 178.681 178.962 179.557L178.983 179.604C180.536 183.098 178.014 184.58 179.428 188.139C180.752 191.474 181.328 195.002 182.46 198.397C183.543 201.645 184.222 204.713 184.738 208.092C185.157 210.83 185.463 213.726 185.228 216.496C185.145 217.472 185.143 218.276 184.331 218.783C183.809 219.109 185.613 219.533 185.652 219.545C188.293 220.394 190.759 220.401 193.489 220.802C195.698 221.125 197.837 221.717 200.082 221.789C201.758 221.843 203.382 221.654 205.029 222.075C207.217 222.635 209.598 223.753 211.869 223.86C213.606 223.941 215.433 222.387 216.898 221.599C218.639 220.662 217.102 218.446 216.638 216.99C215.103 212.172 212.816 207.489 211.934 202.512C211.383 199.407 211.836 196.18 211.773 193.034C211.719 190.321 211.289 187.827 210.53 185.22C209.934 183.171 207.957 181.099 206.515 179.593C205.112 178.127 204.59 176.084 202.894 175C201.33 174 200.296 171.584 199.394 170C198.247 167.986 195.671 167.203 194.502 165.198C193.532 163.533 192.813 161.671 191.734 160.078C190.35 158.033 189.577 155.629 187.996 153.675C187.519 153.086 187.019 152.259 186.376 151.839C184.969 150.919 184.288 149.632 182.853 148.896Z" fill="#9BF8D1" fill-opacity="0.56" stroke="#1DA099" stroke-linecap="round" stroke-linejoin="round"/>
<path d="M184.839 214.252C186.669 213.614 190.524 213.3 189.935 211.453C189.122 208.906 184.937 209.405 182.786 207.818" stroke="#9BF8D1" stroke-width="2" stroke-linecap="round" stroke-linejoin="round"/>
<path d="M83.8062 241.085C84.5512 241.472 86.2769 242.392 87.1526 242.773C88.3072 243.276 87.4868 242.607 87.1831 242.385C86.033 241.547 84.7139 240.903 83.4867 240.187C81.0573 238.771 77.5765 238.023 79.0983 234.65C80.2224 232.159 82.1855 229.971 85.1447 229.783C85.7587 229.744 86.7783 230.77 86.9473 230.178C87.2744 229.034 86.9609 227.74 87.358 226.49C87.8089 225.069 88.8651 222.737 86.7571 222.223C84.9318 221.777 83.0695 222.273 83.616 219.835C84.1746 217.342 85.6481 215.472 87.6394 213.978" stroke="#9BF8D1" stroke-width="2" stroke-linecap="round" stroke-linejoin="round"/>
<path d="M197.554 190.571C194.637 193.652 191.721 196.732 188.805 199.813" stroke="#9BF8D1" stroke-width="2" stroke-linecap="round" stroke-linejoin="round"/>
<path d="M202.113 193.898C200.143 197.59 197.183 201.868 192.625 202.031" stroke="#9BF8D1" stroke-width="2" stroke-linecap="round" stroke-linejoin="round"/>
</svg>
